# AST/ASF file generated using VICON BodyLanguage
# -----------------------------------------------
:version 1.10
:name VICON
:units
  mass 1.0
  length 0.45
  angle deg
:documentation
   .ast/.asf automatically generated from VICON data using
   VICON BodyBuilder and BodyLanguage model FoxedUp or BRILLIANT.MOD
:root
   order TX TY TZ RX RY RZ
   axis XYZ
   position 0 0 0  
   orientation 0 0 0 
:bonedata
  begin
     id 1 
     name lhipjoint
     direction 0.707368 -0.647095 0.284426 
     length 2.60678 
     axis 0 0 0  XYZ
  end
  begin
     id 2 
     name lfemur
     direction 0.34202 -0.939693 0  
     length 6.63812  
     axis 0 0 20  XYZ
    dof rx ry rz
    limits (-160.0 20.0)
           (-70.0 70.0)
           (-60.0 70.0)
  end
  begin
     id 3 
     name ltibia
     direction 0.34202 -0.939693 0   
     length 7.51178   
     axis 0 0 20   XYZ
    dof rx
    limits (-10.0 170.0)
  end
  begin
     id 4 
     name lfoot
     direction 0.121251 -0.333133 0.935051   
     length 1.83716   
     axis -90 7.62852e-016 20   XYZ
    dof rx rz
    limits (-45.0 90.0)
           (-70.0 20.0)
  end
  begin
     id 5 
     name ltoes
     direction 1.53611e-011 -4.21962e-011 1   
     length 0.916133   
     axis -90 7.62852e-016 20   XYZ
    dof rx
    limits (-90.0 20.0)
  end
  begin
     id 6 
     name rhipjoint
     direction -0.692419 -0.660507 0.290321   
     length 2.55385  
     axis 0 0 0  XYZ 
  end
  begin
     id 7 
     name rfemur
     direction -0.34202 -0.939693 0   
     length 7.29079   
     axis 0 0 -20   XYZ
    dof rx ry rz
    limits (-160.0 20.0)
           (-70.0 70.0)
           (-70.0 60.0)
  end
  begin
     id 8 
     name rtibia
     direction -0.34202 -0.939693 0   
     length 7.47143   
     axis 0 0 -20   XYZ
    dof rx
    limits (-10.0 170.0)
 end
 begin
     id 9 
     name rfoot
     direction -0.119907 -0.329441 0.936532   
     length 1.79439  
     axis -90 -7.62852e-016 -20   XYZ
    dof rx rz
    limits (-45.0 90.0)
           (-20.0 70.0)
  end
  begin
     id 10 
     name rtoes
     direction -1.53571e-011 -4.21961e-011 1   
     length 0.896039   
     axis -90 -7.62852e-016 -20   XYZ
    dof rx
    limits (-90.0 20.0)
  end
  begin
     id 11 
     name lowerback
     direction 0.0367721 0.992912 -0.113016   
     length 1.73542   
     axis 0 0 0   XYZ
    dof rx ry rz
    limits (-20.0 45.0)
           (-30.0 30.0)
           (-30.0 30.0)
  end
  begin
     id 12 
     name upperback
     direction -0.000314626 0.990678 0.136227   
     length 1.7514   
     axis 0 0 0   XYZ
    dof rx ry rz
    limits (-20.0 45.0)
           (-30.0 30.0)
           (-30.0 30.0)
  end
  begin
     id 13 
     name thorax
     direction -0.0226159 0.981151 0.191917   
     length 1.71471   
     axis 0 0 0   XYZ
    dof rx ry rz
    limits (-20.0 45.0)
           (-30.0 30.0)
           (-30.0 30.0)
  end
  begin
     id 14 
     name lowerneck
     direction 0.0219333 0.998071 0.0580739   
     length 1.65882   
     axis 0 0 0   XYZ
    dof rx ry rz
    limits (-20.0 45.0)
           (-30.0 30.0)
           (-30.0 30.0)
  end
  begin
     id 15 
     name upperneck
     direction 0.0384529 0.980058 -0.194957   
     length 1.6612   
     axis 0 0 0   XYZ
    dof rx ry rz
    limits (-20.0 45.0)
           (-30.0 30.0)
           (-30.0 30.0)
  end
  begin
     id 16
     name head
     direction 0.00592123 0.997421 -0.0715234  
     length 1.68077  
     axis 0 0 0   XYZ
    dof rx ry rz
    limits (-20.0 45.0)
           (-30.0 30.0)
           (-30.0 30.0)
  end
  begin
     id 17 
     name lclavicle
     direction 0.904803 0.417826 0.0821728  
     length 3.42227  
     axis 0 0 0   XYZ
    dof ry rz
    limits (-20.0 10.0)
           (0.0 20.0)
  end
  begin
     id 18 
     name lhumerus
     direction 1 -4.48965e-011 -2.68786e-027   
     length 5.11878   
     axis -180 -30 -90   XYZ
    dof rx ry rz
    limits (-60.0 90.0)
           (-90.0 90.0)
           (-90.0 90.0)
  end
  begin
     id 19
     name lradius
     direction 1 -4.48965e-011 2.61168e-028   
     length 3.59971   
     axis -180 -30 -90   XYZ
    dof rx
    limits (-10.0 170.0)
  end
  begin
     id 20
     name lwrist
     direction 1 -4.48965e-011 1.58672e-027   
     length 1.79985   
     axis -1.65735e-015 90 90   XYZ
    dof ry
    limits (-180.0 0.0)
 end
  begin
     id 21 
     name lhand
     direction 1 -4.48942e-011 3.17344e-027   
     length 0.62877   
     axis -2.02492e-015 90 90   XYZ
    dof rx rz
    limits (-90.0 90.0)
           (-45.0 45.0)
  end
  begin
     id 22 
     name lfingers
     direction 1 -4.49011e-011 6.34687e-027   
     length 0.506931   
     axis -4.04985e-015 90 90   XYZ
    dof rx
    limits (0.0 90.0)
  end
  begin
     id 23
     name lthumb
     direction 0.707107 -6.34982e-011 0.707107   
     length 0.727854   
     axis -90 45 2.85299e-015   XYZ
    dof rx rz
    limits (-45.0 45.0)
           (-45.0 45.0)
  end
  begin
     id 24 
     name rclavicle
     direction -0.945647 0.32488 0.0143075   
     length 3.52737  
     axis 0 0 0   XYZ 
    dof ry rz
    limits (-10.0 20.0)
           (-20.0 0.0)
  end
  begin
     id 25 
     name rhumerus
     direction -1 -4.48962e-011 1.92182e-027  
     length 5.4902   
     axis -180 30 90   XYZ
    dof rx ry rz
    limits (-90.0 60.0)
           (-90.0 90.0)
           (-90.0 90.0)
  end
  begin
     id 26 
     name rradius
     direction -1 -4.48967e-011 -5.97193e-028   
     length 3.20659   
     axis -180 30 90   XYZ
    dof rx
    limits (-10.0 170.0)
  end
  begin
     id 27 
     name rwrist
     direction -1 -4.48964e-011 1.58672e-027   
     length 1.6033   
     axis -1.65735e-015 -90 -90   XYZ
    dof ry
    limits (-180.0 0.0)
  end
  begin
     id 28
     name rhand
     direction -1 -4.49006e-011 3.17344e-027   
     length 0.691885   
     axis -2.02492e-015 -90 -90   XYZ
    dof rx rz
    limits (-90.0 90.0)
           (-45.0 45.0)
  end
  begin
     id 29
     name rfingers
     direction -1 -4.48908e-011 6.34687e-027   
     length 0.557815   
     axis -4.04985e-015 -90 -90   XYZ
    dof rx
    limits (0.0 90.0)
  end
  begin
     id 30
     name rthumb
     direction -0.707107 -6.34999e-011 0.707107   
     length 0.800915   
     axis -90 -45 -2.85299e-015   XYZ
    dof rx rz
    limits (-45.0 45.0)
           (-45.0 45.0)
  end
:hierarchy
  begin
    root lhipjoint rhipjoint lowerback
    lhipjoint lfemur
    lfemur ltibia
    ltibia lfoot
    lfoot ltoes
    rhipjoint rfemur
    rfemur rtibia
    rtibia rfoot
    rfoot rtoes
    lowerback upperback
    upperback thorax
    thorax lowerneck lclavicle rclavicle
    lowerneck upperneck
    upperneck head
    lclavicle lhumerus
    lhumerus lradius
    lradius lwrist
    lwrist lhand lthumb
    lhand lfingers
    rclavicle rhumerus
    rhumerus rradius
    rradius rwrist
    rwrist rhand rthumb
    rhand rfingers
  end

#!OML:ASF I:\Actors\actors\Patient Classification 1\Patient 1\Session 1\Subject1.ASF
:FULLY-SPECIFIED
:DEGREES
39
root 0.739223 17.4469 9.09259 10.5504 -2.32381 -8.77767
lowerback -2.22939 0.607777 4.84214
upperback -9.32352 1.1283 2.72003
thorax -8.53737 0.311436 0.114809
lowerneck -7.41192 -9.32194 -7.70513
upperneck 22.8587 -13.668 7.32228
head 9.45751 -6.40029 2.2695
rclavicle -2.26118e-015 2.88238e-014
rhumerus -47.0956 -32.7035 -62.5937
rradius 24.1834
rwrist 47.6617
rhand 4.49057 -31.8943
rfingers 7.12502
rthumb 29.8839 -59.5025
lclavicle -2.26118e-015 2.88238e-014
lhumerus -56.0473 40.9066 53.114
lradius 23.6496
lwrist -25.07
lhand -17.2673 -12.5693
lfingers 7.12502
lthumb 8.97737 17.2197
rfemur -6.48206 24.6904 23.9542
rtibia 3.22792
rfoot -11.0558 -23.8931
rtoes 4.22422
lfemur 3.43923 -46.0012 -11.5771
ltibia -4.60402
lfoot -24.6545 54.6506
ltoes 15.0425
40
root 0.741566 17.4466 9.09289 10.5575 -2.34945 -8.79165
lowerback -2.22531 0.62413 4.87843
upperback -9.33815 1.15158 2.709
thorax -8.55485 0.319208 0.0819877
lowerneck -7.39332 -9.31379 -7.67616
upperneck 22.8769 -13.6663 7.33049
head 9.45867 -6.39664 2.26887
rclavicle -1.43125e-014 1.68967e-014
rhumerus -47.1239 -32.7603 -62.5288
rradius 24.1307
rwrist 47.6842
rhand 4.40216 -31.9948
rfingers 7.12502
rthumb 29.7996 -59.6182
lclavicle -1.43125e-014 1.68967e-014
lhumerus -56.0337 40.9437 53.0713
lradius 23.598
lwrist -25.2004
lhand -17.2563 -12.439
lfingers 7.12502
lthumb 8.988 17.3496
rfemur -6.4687 24.7626 23.9598
rtibia 3.19743
rfoot -11.12 -23.9305
rtoes 4.56845
lfemur 3.46671 -46.1056 -11.6009
ltibia -4.58958
lfoot -24.8306 54.7397
ltoes 15.2131
41
root 0.74355 17.4462 9.09291 10.5594 -2.36119 -8.84838
lowerback -2.20364 0.630696 4.94182
upperback -9.35735 1.16558 2.72117
thorax -8.58858 0.321042 0.0590799
lowerneck -7.38949 -9.31048 -7.6071
upperneck 22.9229 -13.6578 7.2505
head 9.46202 -6.3942 2.23213
rclavicle 1.15047e-014 -2.44505e-014
rhumerus -47.1707 -32.8275 -62.4519
rradius 24.104
rwrist 47.7533
rhand 4.35585 -32.0616
rfingers 7.12502
rthumb 29.7554 -59.6928
lclavicle 1.15047e-014 -2.44505e-014
lhumerus -56.0602 40.9778 53.0192
lradius 23.5673
lwrist -25.2417
lhand -17.2031 -12.3863
lfingers 7.12502
lthumb 9.03938 17.4
rfemur -6.44496 24.8533 24.0255
rtibia 3.162
rfoot -11.1219 -24.0038
rtoes 4.60249
lfemur 3.49122 -46.1662 -11.5614
ltibia -4.58742
lfoot -24.9187 54.798
ltoes 15.2408
42
root 0.74605 17.4459 9.09408 10.5373 -2.38828 -8.87019
lowerback -2.19687 0.646931 4.96476
upperback -9.36365 1.18936 2.72804
thorax -8.59885 0.331112 0.0524424
lowerneck -7.35351 -9.31475 -7.56335
upperneck 22.9466 -13.6595 7.18648
head 9.45556 -6.39849 2.20517
rclavicle -1.00635e-014 9.54166e-015
rhumerus -47.2881 -32.92 -62.3285
rradius 24.1312
rwrist 47.8638
rhand 4.29126 -32.1208
rfingers 7.12502
rthumb 29.6937 -59.7631
lclavicle -1.00635e-014 9.54166e-015
lhumerus -56.0156 40.9038 53.109
lradius 23.5727
lwrist -25.1375
lhand -17.1698 -12.3042
lfingers 7.12502
lthumb 9.07153 17.4807
rfemur -6.40029 24.9074 24.0563
rtibia 3.13713
rfoot -11.0871 -24.0369
rtoes 4.52169
lfemur 3.52946 -46.0337 -11.5646
ltibia -4.61241
lfoot -24.7327 54.7374
ltoes 15.0835
43
root 0.748599 17.4456 9.09653 10.5105 -2.42402 -8.88401
lowerback -2.23824 0.657355 4.95155
upperback -9.35551 1.20054 2.74549
thorax -8.56565 0.339134 0.0778871
lowerneck -7.25928 -9.30808 -7.56702
upperneck 22.9261 -13.657 7.20109
head 9.43187 -6.39973 2.21602
rclavicle 6.90777e-015 1.80894e-014
rhumerus -47.4312 -33.0403 -62.1706
rradius 24.1371
rwrist 48.0438
rhand 4.22757 -32.2015
rfingers 7.12502
rthumb 29.6329 -59.8546
lclavicle 6.90777e-015 1.80894e-014
lhumerus -55.9197 40.6955 53.369
lradius 23.667
lwrist -24.8447
lhand -17.1669 -12.276
lfingers 7.12502
lthumb 9.0743 17.5088
rfemur -6.34371 24.9432 24.0812
rtibia 3.11006
rfoot -11.0435 -24.0578
rtoes 4.38249
lfemur 3.59937 -45.9902 -11.6187
ltibia -4.60573
lfoot -24.7558 54.7228
ltoes 15.1402
44
root 0.750273 17.445 9.09863 10.4924 -2.47068 -8.88602
lowerback -2.29625 0.654782 4.90477
upperback -9.32721 1.19131 2.76881
thorax -8.50124 0.340586 0.129086
lowerneck -7.21461 -9.29829 -7.56708
upperneck 22.8793 -13.6458 7.2192
head 9.40747 -6.3951 2.22631
rclavicle 3.8266e-015 3.67752e-014
rhumerus -47.4577 -33.0991 -62.1274
rradius 24.1177
rwrist 48.1608
rhand 4.18684 -32.3213
rfingers 7.12502
rthumb 29.5941 -59.9813
lclavicle 3.8266e-015 3.67752e-014
lhumerus -55.8293 40.534 53.6223
lradius 23.7837
lwrist -24.549
lhand -17.1854 -12.313
lfingers 7.12502
lthumb 9.05646 17.4726
rfemur -6.30911 24.955 24.0856
rtibia 3.09868
rfoot -11.0391 -24.0361
rtoes 4.39966
lfemur 3.67439 -45.9389 -11.667
ltibia -4.64549
lfoot -24.7668 54.7081
ltoes 15.1172
45
root 0.751384 17.4446 9.0993 10.4837 -2.51471 -8.89785
lowerback -2.32327 0.658924 4.87922
upperback -9.30112 1.19411 2.79073
thorax -8.45698 0.345908 0.166197
lowerneck -7.28015 -9.31441 -7.55782
upperneck 22.905 -13.6606 7.18622
head 9.42682 -6.40179 2.20822
rclavicle -1.13556e-014 -7.35503e-015
rhumerus -47.4259 -33.1913 -62.0843
rradius 24.0543
rwrist 48.2392
rhand 4.1368 -32.3901
rfingers 7.12502
rthumb 29.5463 -60.0585
lclavicle -1.13556e-014 -7.35503e-015
lhumerus -55.7821 40.5163 53.7398
lradius 23.8541
lwrist -24.4532
lhand -17.238 -12.3459
lfingers 7.12502
lthumb 9.00572 17.4418
rfemur -6.30267 24.9715 24.0982
rtibia 3.10353
rfoot -11.0129 -24.013
rtoes 4.41218
lfemur 3.71673 -45.8264 -11.6639
ltibia -4.70766
lfoot -24.6409 54.6676
ltoes 14.9805
46
root 0.753404 17.4454 9.09914 10.5135 -2.53086 -8.92023
lowerback -2.33384 0.66646 4.90377
upperback -9.33069 1.20605 2.79736
thorax -8.48339 0.349497 0.159458
lowerneck -7.31179 -9.34323 -7.53795
upperneck 23.0098 -13.6977 7.12155
head 9.46642 -6.42094 2.17585
rclavicle -1.0635e-014 -5.86415e-015
rhumerus -47.4825 -33.2906 -61.9836
rradius 23.9753
rwrist 48.2791
rhand 4.10379 -32.3742
rfingers 7.12502
rthumb 29.5148 -60.0482
lclavicle -1.0635e-014 -5.86415e-015
lhumerus -55.7762 40.4423 53.8045
lradius 23.9169
lwrist -24.3684
lhand -17.2948 -12.3351
lfingers 7.12502
lthumb 8.95089 17.455
rfemur -6.33385 25.0518 24.1045
rtibia 3.08496
rfoot -10.9508 -24.0809
rtoes 4.33244
lfemur 3.6453 -45.715 -11.5858
ltibia -4.70798
lfoot -24.501 54.6092
ltoes 14.8843
47
root 0.755599 17.4466 9.09871 10.5516 -2.54466 -8.89424
lowerback -2.33553 0.674306 4.89187
upperback -9.38156 1.21745 2.77672
thorax -8.53815 0.353632 0.144295
lowerneck -7.24788 -9.35544 -7.56658
upperneck 23.0558 -13.7317 7.16868
head 9.4794 -6.43594 2.19458
rclavicle -1.09332e-015 1.43125e-014
rhumerus -47.5742 -33.2741 -61.9736
rradius 23.9744
rwrist 48.177
rhand 4.09415 -32.4207
rfingers 7.12502
rthumb 29.5056 -60.0964
lclavicle -1.09332e-015 1.43125e-014
lhumerus -55.7985 40.3607 53.7945
lradius 23.9621
lwrist -24.3068
lhand -17.2574 -12.1842
lfingers 7.12502
lthumb 8.987 17.6044
rfemur -6.38249 25.1194 24.0432
rtibia 3.07329
rfoot -10.9408 -24.1333
rtoes 4.32804
lfemur 3.55598 -45.6688 -11.5619
ltibia -4.68631
lfoot -24.459 54.5759
ltoes 14.9153
48
root 0.757062 17.4468 9.09892 10.5634 -2.5826 -8.87601
lowerback -2.35229 0.688946 4.86478
upperback -9.39186 1.23471 2.76272
thorax -8.53897 0.36346 0.143919
lowerneck -7.2381 -9.36616 -7.59572
upperneck 23.0839 -13.758 7.21613
head 9.49564 -6.44582 2.21189
rclavicle 4.89507e-015 -3.57812e-015
rhumerus -47.6009 -33.2138 -62.0516
rradius 24.0195
rwrist 48.0324
rhand 4.04714 -32.5037
rfingers 7.12502
rthumb 29.4607 -60.1873
lclavicle 4.89507e-015 -3.57812e-015
lhumerus -55.8354 40.4333 53.6732
lradius 23.9669
lwrist -24.3685
lhand -17.1856 -12.0302
lfingers 7.12502
lthumb 9.05624 17.7554
rfemur -6.42291 25.0467 24.0075
rtibia 3.10358
rfoot -10.903 -24.0547
rtoes 3.98515
lfemur 3.57054 -45.7318 -11.6057
ltibia -4.68376
lfoot -24.6522 54.6265
ltoes 15.163
49
root 0.757822 17.4466 9.10016 10.5637 -2.62212 -8.88071
lowerback -2.38119 0.69305 4.84256
upperback -9.38905 1.23738 2.76549
thorax -8.51899 0.366943 0.159257
lowerneck -7.29912 -9.37845 -7.56473
upperneck 23.1706 -13.7698 7.1526
head 9.53145 -6.45145 2.18013
rclavicle 2.23633e-015 -2.92213e-014
rhumerus -47.6062 -33.1595 -62.13
rradius 24.0236
rwrist 47.9715
rhand 3.95186 -32.4745
rfingers 7.12502
rthumb 29.3697 -60.1741
lclavicle 2.23633e-015 -2.92213e-014
lhumerus -55.9188 40.569 53.4785
lradius 23.9471
lwrist -24.4826
lhand -17.1748 -12.0117
lfingers 7.12502
lthumb 9.0667 17.7734
rfemur -6.44196 24.9956 24.0097
rtibia 3.13489
rfoot -10.864 -23.9962
rtoes 3.7931
lfemur 3.63268 -45.8181 -11.6539
ltibia -4.69576
lfoot -24.8764 54.7081
ltoes 15.3487
50
root 0.75822 17.4464 9.1011 10.5677 -2.64098 -8.87941
lowerback -2.39276 0.695641 4.82935
upperback -9.39921 1.23982 2.76098
thorax -8.52339 0.36876 0.161913
lowerneck -7.30274 -9.37516 -7.61184
upperneck 23.2111 -13.7804 7.22599
head 9.55664 -6.45227 2.21027
rclavicle 2.23384e-014 -3.3197e-014
rhumerus -47.6629 -33.2031 -62.118
rradius 24.0215
rwrist 48.0001
rhand 3.94506 -32.4003
rfingers 7.12502
rthumb 29.3632 -60.101
lclavicle 2.23384e-014 -3.3197e-014
lhumerus -56.0297 40.7051 53.2509
lradius 23.9024
lwrist -24.7238
lhand -17.1723 -11.9907
lfingers 7.12502
lthumb 9.0691 17.7943
rfemur -6.44879 25.0588 24.0024
rtibia 3.15176
rfoot -10.8921 -24.0135
rtoes 3.97459
lfemur 3.66077 -45.8481 -11.6785
ltibia -4.70869
lfoot -24.8697 54.7662
ltoes 15.2782
51
root 0.759272 17.446 9.1012 10.5702 -2.65406 -8.88697
lowerback -2.38964 0.711165 4.85007
upperback -9.40442 1.26113 2.75147
thorax -8.52995 0.377124 0.139358
lowerneck -7.28513 -9.36969 -7.66136
upperneck 23.1838 -13.7845 7.31129
head 9.55443 -6.45095 2.2474
rclavicle 5.96354e-016 4.17448e-015
rhumerus -47.7489 -33.3517 -62.0067
rradius 24.0467
rwrist 48.104
rhand 4.12702 -32.3416
rfingers 7.12502
rthumb 29.537 -60.0117
lclavicle 5.96354e-016 4.17448e-015
lhumerus -56.0791 40.8208 53.0981
lradius 23.8575
lwrist -25.0199
lhand -17.1763 -11.873
lfingers 7.12502
lthumb 9.06522 17.9122
rfemur -6.45306 25.0925 24.006
rtibia 3.17155
rfoot -10.9227 -24.0062
rtoes 3.8256
lfemur 3.66935 -45.8463 -11.6809
ltibia -4.71609
lfoot -24.8402 54.7915
ltoes 15.2376
